<?xml version="1.0" encoding="utf-8" standalone="no"?>
<!DOCTYPE svg PUBLIC "-//W3C//DTD SVG 1.1//EN"
  "http://www.w3.org/Graphics/SVG/1.1/DTD/svg11.dtd">
<svg xmlns:xlink="http://www.w3.org/1999/xlink" width="254.714844pt" height="253.16pt" viewBox="0 0 254.714844 253.16" xmlns="http://www.w3.org/2000/svg" version="1.1">
 <metadata>
  <rdf:RDF xmlns:dc="http://purl.org/dc/elements/1.1/" xmlns:cc="http://creativecommons.org/ns#" xmlns:rdf="http://www.w3.org/1999/02/22-rdf-syntax-ns#">
   <cc:Work>
    <dc:type rdf:resource="http://purl.org/dc/dcmitype/StillImage"/>
    <dc:date>2026-06-18T12:00:29.587974</dc:date>
    <dc:format>image/svg+xml</dc:format>
    <dc:creator>
     <cc:Agent>
      <dc:title>Matplotlib v3.11.0, https://matplotlib.org/</dc:title>
     </cc:Agent>
    </dc:creator>
   </cc:Work>
  </rdf:RDF>
 </metadata>
 <defs>
  <style type="text/css">*{stroke-linejoin: round; stroke-linecap: butt}</style>
 </defs>
 <g id="figure_1">
  <g id="patch_1">
   <path d="M 0 253.16 
L 254.714844 253.16 
L 254.714844 0 
L 0 0 
z
" style="fill: #ffffff"/>
  </g>
  <g id="axes_1">
   <g id="patch_2">
    <path d="M 20.95 228.96 
L 244.15 228.96 
L 244.15 7.2 
L 20.95 7.2 
z
" style="fill: #ffffff"/>
   </g>
   <g id="PathCollection_1">
    <defs>
     <path id="m02a01fd8e6" d="M 0 3.162278 
C 0.838646 3.162278 1.643056 2.82908 2.236068 2.236068 
C 2.82908 1.643056 3.162278 0.838646 3.162278 0 
C 3.162278 -0.838646 2.82908 -1.643056 2.236068 -2.236068 
C 1.643056 -2.82908 0.838646 -3.162278 0 -3.162278 
C -0.838646 -3.162278 -1.643056 -2.82908 -2.236068 -2.236068 
C -2.82908 -1.643056 -3.162278 -0.838646 -3.162278 0 
C -3.162278 0.838646 -2.82908 1.643056 -2.236068 2.236068 
C -1.643056 2.82908 -0.838646 3.162278 0 3.162278 
z
" style="stroke: #000000"/>
    </defs>
    <g clip-path="url(#p30d1d0d1df)">
     <use xlink:href="#m02a01fd8e6" x="169.75" y="196.48" style="stroke: #000000"/>
    </g>
   </g>
   <g id="matplotlib.axis_1">
    <g id="xtick_1">
     <g id="line2d_1">
      <path d="M 20.95 228.96 
L 20.95 7.2 
" clip-path="url(#p30d1d0d1df)" style="fill: none; stroke-dasharray: 0.3,0.495; stroke-dashoffset: 0; stroke: #b0b0b0; stroke-width: 0.3"/>
     </g>
     <g id="line2d_2">
      <defs>
       <path id="ma6602f6fef" d="M 0 0 
L 0 3.5 
" style="stroke: #000000; stroke-width: 0.8"/>
      </defs>
      <g>
       <use xlink:href="#ma6602f6fef" x="20.95" y="228.96" style="stroke: #000000; stroke-width: 0.8"/>
      </g>
     </g>
     <g id="text_1">
      <!-- -3 -->
      <g transform="translate(15.720313 244.76) scale(0.1 -0.1)">
       <defs>
        <path id="HiraginoSans-W4-e" d="M 192 1581 
C 384 1606 525 1613 781 1613 
L 1606 1613 
C 1875 1613 2010 1606 2202 1581 
L 2202 2202 
C 2022 2176 1882 2170 1606 2170 
L 781 2170 
C 512 2170 371 2176 192 2202 
L 192 1581 
z
" transform="scale(0.015625)"/>
        <path id="HiraginoSans-W4-14" d="M 282 1101 
C 397 768 474 621 621 448 
C 934 90 1434 -96 2112 -96 
C 2720 -96 3213 70 3533 384 
C 3770 614 3904 954 3904 1306 
C 3904 1677 3802 1958 3597 2182 
C 3379 2419 3130 2528 2688 2586 
C 2995 2650 3130 2701 3290 2816 
C 3578 3021 3738 3366 3738 3757 
C 3738 4538 3117 5043 2157 5043 
C 1594 5043 1146 4883 845 4576 
C 666 4390 582 4237 467 3891 
L 1107 3757 
C 1171 3981 1216 4083 1306 4192 
C 1478 4416 1741 4525 2125 4525 
C 2746 4525 3110 4224 3110 3725 
C 3110 3482 3021 3264 2867 3110 
C 2669 2918 2374 2829 1965 2829 
C 1779 2829 1613 2842 1459 2861 
L 1459 2272 
C 1651 2298 1811 2310 2003 2310 
C 2829 2310 3264 1990 3264 1376 
C 3264 794 2816 429 2106 429 
C 1779 429 1510 506 1293 666 
C 1107 800 1024 928 928 1248 
L 282 1101 
z
" transform="scale(0.015625)"/>
       </defs>
       <use xlink:href="#HiraginoSans-W4-e"/>
       <use xlink:href="#HiraginoSans-W4-14" transform="translate(37.296875 0)"/>
      </g>
     </g>
    </g>
    <g id="xtick_2">
     <g id="line2d_3">
      <path d="M 58.15 228.96 
L 58.15 7.2 
" clip-path="url(#p30d1d0d1df)" style="fill: none; stroke-dasharray: 0.3,0.495; stroke-dashoffset: 0; stroke: #b0b0b0; stroke-width: 0.3"/>
     </g>
     <g id="line2d_4">
      <g>
       <use xlink:href="#ma6602f6fef" x="58.15" y="228.96" style="stroke: #000000; stroke-width: 0.8"/>
      </g>
     </g>
     <g id="text_2">
      <!-- -2 -->
      <g transform="translate(52.920313 244.76) scale(0.1 -0.1)">
       <defs>
        <path id="HiraginoSans-W4-13" d="M 3078 0 
C 3424 0 3642 -6 3917 -32 
L 3917 589 
C 3693 557 3430 544 3091 544 
L 1114 544 
C 1280 1114 1606 1478 2451 2042 
C 3181 2528 3341 2656 3546 2912 
C 3738 3142 3846 3443 3846 3744 
C 3846 4525 3200 5030 2202 5030 
C 1613 5030 1158 4858 858 4518 
C 640 4269 531 4026 442 3565 
L 1088 3469 
C 1139 3782 1190 3936 1306 4102 
C 1491 4371 1792 4506 2208 4506 
C 2816 4506 3206 4211 3206 3744 
C 3206 3360 2995 3085 2387 2675 
C 1754 2246 1600 2138 1389 1952 
C 979 1594 710 1229 544 806 
C 448 563 429 461 365 -26 
C 576 -6 678 0 1107 0 
L 3078 0 
z
" transform="scale(0.015625)"/>
       </defs>
       <use xlink:href="#HiraginoSans-W4-e"/>
       <use xlink:href="#HiraginoSans-W4-13" transform="translate(37.296875 0)"/>
      </g>
     </g>
    </g>
    <g id="xtick_3">
     <g id="line2d_5">
      <path d="M 95.35 228.96 
L 95.35 7.2 
" clip-path="url(#p30d1d0d1df)" style="fill: none; stroke-dasharray: 0.3,0.495; stroke-dashoffset: 0; stroke: #b0b0b0; stroke-width: 0.3"/>
     </g>
     <g id="line2d_6">
      <g>
       <use xlink:href="#ma6602f6fef" x="95.35" y="228.96" style="stroke: #000000; stroke-width: 0.8"/>
      </g>
     </g>
     <g id="text_3">
      <!-- -1 -->
      <g transform="translate(90.120313 244.76) scale(0.1 -0.1)">
       <defs>
        <path id="HiraginoSans-W4-12" d="M 1018 4371 
C 1222 4397 1389 4410 1606 4410 
L 1939 4410 
L 1939 755 
C 1939 454 1926 237 1888 0 
L 2598 0 
C 2560 250 2547 448 2547 755 
L 2547 3904 
C 2547 4256 2566 4582 2605 4966 
C 2387 4941 2278 4934 2035 4934 
L 1581 4934 
C 1325 4934 1197 4941 1018 4966 
L 1018 4371 
z
" transform="scale(0.015625)"/>
       </defs>
       <use xlink:href="#HiraginoSans-W4-e"/>
       <use xlink:href="#HiraginoSans-W4-12" transform="translate(37.296875 0)"/>
      </g>
     </g>
    </g>
    <g id="xtick_4">
     <g id="line2d_7">
      <path d="M 132.55 228.96 
L 132.55 7.2 
" clip-path="url(#p30d1d0d1df)" style="fill: none; stroke-dasharray: 0.3,0.495; stroke-dashoffset: 0; stroke: #b0b0b0; stroke-width: 0.3"/>
     </g>
     <g id="line2d_8">
      <g>
       <use xlink:href="#ma6602f6fef" x="132.55" y="228.96" style="stroke: #000000; stroke-width: 0.8"/>
      </g>
     </g>
     <g id="text_4">
      <!-- 0 -->
      <g transform="translate(129.185156 244.76) scale(0.1 -0.1)">
       <defs>
        <path id="HiraginoSans-W4-11" d="M 2144 -90 
C 2758 -90 3232 141 3565 602 
C 3846 998 4019 1696 4019 2464 
C 4019 3002 3936 3501 3770 3949 
C 3693 4160 3558 4371 3379 4550 
C 3078 4858 2650 5024 2157 5024 
C 1498 5024 986 4742 666 4205 
C 435 3834 288 3142 288 2458 
C 288 1939 371 1434 538 986 
C 614 768 749 563 928 384 
C 1242 70 1651 -90 2144 -90 
z
M 2144 4499 
C 2592 4499 2918 4307 3123 3923 
C 3283 3629 3398 3014 3398 2470 
C 3398 2022 3341 1619 3213 1235 
C 3155 1043 3046 870 2912 730 
C 2726 538 2458 435 2150 435 
C 1734 435 1414 614 1197 973 
C 1024 1261 902 1875 902 2451 
C 902 2906 966 3328 1088 3699 
C 1139 3866 1235 4026 1370 4173 
C 1568 4397 1818 4499 2144 4499 
z
" transform="scale(0.015625)"/>
       </defs>
       <use xlink:href="#HiraginoSans-W4-11"/>
      </g>
     </g>
    </g>
    <g id="xtick_5">
     <g id="line2d_9">
      <path d="M 169.75 228.96 
L 169.75 7.2 
" clip-path="url(#p30d1d0d1df)" style="fill: none; stroke-dasharray: 0.3,0.495; stroke-dashoffset: 0; stroke: #b0b0b0; stroke-width: 0.3"/>
     </g>
     <g id="line2d_10">
      <g>
       <use xlink:href="#ma6602f6fef" x="169.75" y="228.96" style="stroke: #000000; stroke-width: 0.8"/>
      </g>
     </g>
     <g id="text_5">
      <!-- 1 -->
      <g transform="translate(166.385156 244.76) scale(0.1 -0.1)">
       <use xlink:href="#HiraginoSans-W4-12"/>
      </g>
     </g>
    </g>
    <g id="xtick_6">
     <g id="line2d_11">
      <path d="M 206.95 228.96 
L 206.95 7.2 
" clip-path="url(#p30d1d0d1df)" style="fill: none; stroke-dasharray: 0.3,0.495; stroke-dashoffset: 0; stroke: #b0b0b0; stroke-width: 0.3"/>
     </g>
     <g id="line2d_12">
      <g>
       <use xlink:href="#ma6602f6fef" x="206.95" y="228.96" style="stroke: #000000; stroke-width: 0.8"/>
      </g>
     </g>
     <g id="text_6">
      <!-- 2 -->
      <g transform="translate(203.585156 244.76) scale(0.1 -0.1)">
       <use xlink:href="#HiraginoSans-W4-13"/>
      </g>
     </g>
    </g>
    <g id="xtick_7">
     <g id="line2d_13">
      <path d="M 244.15 228.96 
L 244.15 7.2 
" clip-path="url(#p30d1d0d1df)" style="fill: none; stroke-dasharray: 0.3,0.495; stroke-dashoffset: 0; stroke: #b0b0b0; stroke-width: 0.3"/>
     </g>
     <g id="line2d_14">
      <g>
       <use xlink:href="#ma6602f6fef" x="244.15" y="228.96" style="stroke: #000000; stroke-width: 0.8"/>
      </g>
     </g>
     <g id="text_7">
      <!-- 3 -->
      <g transform="translate(240.785156 244.76) scale(0.1 -0.1)">
       <use xlink:href="#HiraginoSans-W4-14"/>
      </g>
     </g>
    </g>
   </g>
   <g id="matplotlib.axis_2">
    <g id="ytick_1">
     <g id="line2d_15">
      <path d="M 20.95 218.88 
L 244.15 218.88 
" clip-path="url(#p30d1d0d1df)" style="fill: none; stroke-dasharray: 0.3,0.495; stroke-dashoffset: 0; stroke: #b0b0b0; stroke-width: 0.3"/>
     </g>
     <g id="line2d_16">
      <defs>
       <path id="md6cbd5f91f" d="M 0 0 
L -3.5 0 
" style="stroke: #000000; stroke-width: 0.8"/>
      </defs>
      <g>
       <use xlink:href="#md6cbd5f91f" x="20.95" y="218.88" style="stroke: #000000; stroke-width: 0.8"/>
      </g>
     </g>
     <g id="text_8">
      <!-- 0 -->
      <g transform="translate(7.220313 223.28) scale(0.1 -0.1)">
       <use xlink:href="#HiraginoSans-W4-11"/>
      </g>
     </g>
    </g>
    <g id="ytick_2">
     <g id="line2d_17">
      <path d="M 20.95 174.08 
L 244.15 174.08 
" clip-path="url(#p30d1d0d1df)" style="fill: none; stroke-dasharray: 0.3,0.495; stroke-dashoffset: 0; stroke: #b0b0b0; stroke-width: 0.3"/>
     </g>
     <g id="line2d_18">
      <g>
       <use xlink:href="#md6cbd5f91f" x="20.95" y="174.08" style="stroke: #000000; stroke-width: 0.8"/>
      </g>
     </g>
     <g id="text_9">
      <!-- 2 -->
      <g transform="translate(7.220313 178.48) scale(0.1 -0.1)">
       <use xlink:href="#HiraginoSans-W4-13"/>
      </g>
     </g>
    </g>
    <g id="ytick_3">
     <g id="line2d_19">
      <path d="M 20.95 129.28 
L 244.15 129.28 
" clip-path="url(#p30d1d0d1df)" style="fill: none; stroke-dasharray: 0.3,0.495; stroke-dashoffset: 0; stroke: #b0b0b0; stroke-width: 0.3"/>
     </g>
     <g id="line2d_20">
      <g>
       <use xlink:href="#md6cbd5f91f" x="20.95" y="129.28" style="stroke: #000000; stroke-width: 0.8"/>
      </g>
     </g>
     <g id="text_10">
      <!-- 4 -->
      <g transform="translate(7.2 133.68) scale(0.1 -0.1)">
       <defs>
        <path id="HiraginoSans-W4-15" d="M 179 1210 
C 403 1229 589 1235 954 1235 
L 2688 1235 
L 2688 710 
C 2688 410 2675 218 2630 0 
L 3309 0 
C 3270 230 3258 390 3258 704 
L 3258 1235 
L 3494 1235 
C 3763 1235 3910 1222 4154 1190 
L 4154 1798 
C 3917 1766 3750 1754 3494 1754 
L 3258 1754 
L 3258 3853 
C 3258 4358 3264 4544 3296 4934 
L 2701 4934 
C 2560 4704 2445 4550 2214 4269 
L 621 2298 
C 467 2099 326 1939 179 1773 
L 179 1210 
z
M 2688 1747 
L 858 1747 
L 2259 3514 
C 2464 3763 2592 3936 2720 4128 
C 2694 3814 2688 3622 2688 3283 
L 2688 1747 
z
" transform="scale(0.015625)"/>
       </defs>
       <use xlink:href="#HiraginoSans-W4-15"/>
      </g>
     </g>
    </g>
    <g id="ytick_4">
     <g id="line2d_21">
      <path d="M 20.95 84.48 
L 244.15 84.48 
" clip-path="url(#p30d1d0d1df)" style="fill: none; stroke-dasharray: 0.3,0.495; stroke-dashoffset: 0; stroke: #b0b0b0; stroke-width: 0.3"/>
     </g>
     <g id="line2d_22">
      <g>
       <use xlink:href="#md6cbd5f91f" x="20.95" y="84.48" style="stroke: #000000; stroke-width: 0.8"/>
      </g>
     </g>
     <g id="text_11">
      <!-- 6 -->
      <g transform="translate(7.220313 88.88) scale(0.1 -0.1)">
       <defs>
        <path id="HiraginoSans-W4-17" d="M 3846 3994 
C 3706 4301 3616 4442 3462 4602 
C 3187 4877 2784 5024 2304 5024 
C 1683 5024 1222 4794 864 4307 
C 557 3891 371 3162 371 2355 
C 371 1446 614 704 1043 320 
C 1331 58 1773 -90 2253 -90 
C 3277 -90 3968 589 3968 1587 
C 3968 2586 3334 3213 2323 3213 
C 1894 3213 1568 3104 1274 2854 
C 1133 2739 1062 2656 941 2458 
C 979 3085 1043 3392 1210 3763 
C 1434 4262 1798 4518 2285 4518 
C 2765 4518 3040 4314 3238 3821 
L 3846 3994 
z
M 2266 2714 
C 2950 2714 3366 2285 3366 1574 
C 3366 1325 3309 1088 3206 922 
C 3008 614 2643 422 2234 422 
C 1568 422 1069 915 1069 1574 
C 1069 2234 1574 2714 2266 2714 
z
" transform="scale(0.015625)"/>
       </defs>
       <use xlink:href="#HiraginoSans-W4-17"/>
      </g>
     </g>
    </g>
    <g id="ytick_5">
     <g id="line2d_23">
      <path d="M 20.95 39.68 
L 244.15 39.68 
" clip-path="url(#p30d1d0d1df)" style="fill: none; stroke-dasharray: 0.3,0.495; stroke-dashoffset: 0; stroke: #b0b0b0; stroke-width: 0.3"/>
     </g>
     <g id="line2d_24">
      <g>
       <use xlink:href="#md6cbd5f91f" x="20.95" y="39.68" style="stroke: #000000; stroke-width: 0.8"/>
      </g>
     </g>
     <g id="text_12">
      <!-- 8 -->
      <g transform="translate(7.220313 44.08) scale(0.1 -0.1)">
       <defs>
        <path id="HiraginoSans-W4-19" d="M 1446 2586 
C 1203 2547 1056 2490 851 2355 
C 480 2106 294 1754 294 1299 
C 294 397 966 -102 2163 -102 
C 3347 -102 4006 397 4006 1299 
C 4006 1728 3853 2061 3539 2304 
C 3322 2470 3136 2547 2867 2586 
C 3437 2714 3789 3162 3789 3757 
C 3789 4550 3162 5043 2150 5043 
C 1146 5043 512 4544 512 3750 
C 512 3162 877 2701 1446 2586 
z
M 2150 4538 
C 2784 4538 3187 4211 3187 3699 
C 3187 3155 2797 2829 2157 2829 
C 1510 2829 1114 3162 1114 3699 
C 1114 4211 1523 4538 2150 4538 
z
M 2157 2304 
C 2912 2304 3373 1939 3373 1344 
C 3373 749 2925 410 2144 410 
C 1376 410 928 749 928 1338 
C 928 1939 1389 2304 2157 2304 
z
" transform="scale(0.015625)"/>
       </defs>
       <use xlink:href="#HiraginoSans-W4-19"/>
      </g>
     </g>
    </g>
   </g>
   <g id="line2d_25">
    <path d="M 20.95 218.88 
L 244.15 218.88 
" clip-path="url(#p30d1d0d1df)" style="fill: none; stroke: #808080; stroke-width: 0.5; stroke-linecap: square"/>
   </g>
   <g id="line2d_26">
    <path d="M 132.55 228.96 
L 132.55 7.2 
" clip-path="url(#p30d1d0d1df)" style="fill: none; stroke: #808080; stroke-width: 0.5; stroke-linecap: square"/>
   </g>
   <g id="line2d_27">
    <path d="M 20.95 17.28 
L 26.55804 37.032228 
L 31.044472 52.100939 
L 35.530905 66.518029 
L 40.017337 80.2835 
L 44.503769 93.397351 
L 48.990201 105.859581 
L 53.476633 117.670192 
L 57.963065 128.829183 
L 62.449497 139.336554 
L 66.93593 149.192305 
L 71.422362 158.396436 
L 75.908794 166.948948 
L 79.273618 172.935706 
L 82.638442 178.555927 
L 86.003266 183.809613 
L 89.36809 188.696762 
L 92.732915 193.217375 
L 96.097739 197.371452 
L 99.462563 201.158993 
L 102.827387 204.579997 
L 106.192211 207.634466 
L 109.557035 210.322398 
L 112.921859 212.643794 
L 116.286683 214.598654 
L 119.651508 216.186977 
L 121.894724 217.042228 
L 124.13794 217.734574 
L 126.381156 218.264016 
L 128.624372 218.630552 
L 130.867588 218.834183 
L 133.110804 218.874909 
L 135.35402 218.75273 
L 137.597236 218.467647 
L 139.840452 218.019658 
L 142.083668 217.408764 
L 144.326884 216.634966 
L 146.570101 215.698262 
L 149.934925 213.98776 
L 153.299749 211.910721 
L 156.664573 209.467147 
L 160.029397 206.657036 
L 163.394221 203.480389 
L 166.759045 199.937206 
L 170.123869 196.027486 
L 173.488693 191.751231 
L 176.853518 187.108439 
L 180.218342 182.099111 
L 183.583166 176.723246 
L 186.94799 170.980846 
L 190.312814 164.871909 
L 193.677638 158.396436 
L 198.16407 149.192305 
L 202.650503 139.336554 
L 207.136935 128.829183 
L 211.623367 117.670192 
L 216.109799 105.859581 
L 220.596231 93.397351 
L 225.082663 80.2835 
L 229.569095 66.518029 
L 234.055528 52.100939 
L 238.54196 37.032228 
L 243.028392 21.311898 
L 244.15 17.28 
L 244.15 17.28 
" clip-path="url(#p30d1d0d1df)" style="fill: none; stroke: #000000; stroke-linecap: square"/>
   </g>
   <g id="patch_3">
    <path d="M 20.95 228.96 
L 20.95 7.2 
" style="fill: none; stroke: #000000; stroke-width: 0.8; stroke-linejoin: miter; stroke-linecap: square"/>
   </g>
   <g id="patch_4">
    <path d="M 244.15 228.96 
L 244.15 7.2 
" style="fill: none; stroke: #000000; stroke-width: 0.8; stroke-linejoin: miter; stroke-linecap: square"/>
   </g>
   <g id="patch_5">
    <path d="M 20.95 228.96 
L 244.15 228.96 
" style="fill: none; stroke: #000000; stroke-width: 0.8; stroke-linejoin: miter; stroke-linecap: square"/>
   </g>
   <g id="patch_6">
    <path d="M 20.95 7.2 
L 244.15 7.2 
" style="fill: none; stroke: #000000; stroke-width: 0.8; stroke-linejoin: miter; stroke-linecap: square"/>
   </g>
   <g id="text_13">
    <!-- P -->
    <g transform="translate(177.75 188.48) scale(0.14 -0.14)">
     <defs>
      <path id="HiraginoSans-W4-31" d="M 1178 0 
C 1139 230 1126 435 1126 755 
L 1126 1965 
L 2496 1965 
C 3533 1965 4128 2522 4128 3494 
C 4128 4416 3558 4934 2528 4934 
L 1210 4934 
C 909 4934 710 4941 480 4954 
C 518 4678 531 4480 531 4198 
L 531 749 
C 531 429 518 243 480 0 
L 1178 0 
z
M 1126 2490 
L 1126 4410 
L 2496 4410 
C 3162 4410 3507 4083 3507 3469 
C 3507 2842 3142 2490 2496 2490 
L 1126 2490 
z
" transform="scale(0.015625)"/>
     </defs>
     <use xlink:href="#HiraginoSans-W4-31"/>
    </g>
   </g>
  </g>
 </g>
 <defs>
  <clipPath id="p30d1d0d1df">
   <rect x="20.95" y="7.2" width="223.2" height="221.76"/>
  </clipPath>
 </defs>
</svg>
